<svg xmlns="http://www.w3.org/2000/svg" viewBox="0 0 16 16" shape-rendering="crispEdges" role="img" aria-label="globe"><rect x="5" y="0" width="6" height="1" fill="#17476e"/><rect x="4" y="1" width="2" height="1" fill="#17476e"/><rect x="6" y="1" width="4" height="1" fill="#3d8fd6"/><rect x="10" y="1" width="2" height="1" fill="#17476e"/><rect x="2" y="2" width="2" height="1" fill="#17476e"/><rect x="4" y="2" width="1" height="1" fill="#3d8fd6"/><rect x="5" y="2" width="1" height="1" fill="#8fd0f7"/><rect x="6" y="2" width="6" height="1" fill="#3d8fd6"/><rect x="12" y="2" width="2" height="1" fill="#17476e"/><rect x="2" y="3" width="1" height="1" fill="#17476e"/><rect x="3" y="3" width="1" height="1" fill="#3d8fd6"/><rect x="4" y="3" width="1" height="1" fill="#8fd0f7"/><rect x="5" y="3" width="2" height="1" fill="#3d8fd6"/><rect x="7" y="3" width="1" height="1" fill="#4fd67a"/><rect x="8" y="3" width="5" height="1" fill="#3d8fd6"/><rect x="13" y="3" width="1" height="1" fill="#17476e"/><rect x="1" y="4" width="1" height="1" fill="#17476e"/><rect x="2" y="4" width="1" height="1" fill="#3d8fd6"/><rect x="3" y="4" width="5" height="1" fill="#4fd67a"/><rect x="8" y="4" width="6" height="1" fill="#3d8fd6"/><rect x="14" y="4" width="1" height="1" fill="#17476e"/><rect x="0" y="5" width="2" height="1" fill="#17476e"/><rect x="2" y="5" width="1" height="1" fill="#3d8fd6"/><rect x="3" y="5" width="6" height="1" fill="#4fd67a"/><rect x="9" y="5" width="5" height="1" fill="#3d8fd6"/><rect x="14" y="5" width="2" height="1" fill="#17476e"/><rect x="0" y="6" width="1" height="1" fill="#17476e"/><rect x="1" y="6" width="2" height="1" fill="#3d8fd6"/><rect x="3" y="6" width="6" height="1" fill="#4fd67a"/><rect x="9" y="6" width="6" height="1" fill="#3d8fd6"/><rect x="15" y="6" width="1" height="1" fill="#17476e"/><rect x="0" y="7" width="1" height="1" fill="#17476e"/><rect x="1" y="7" width="2" height="1" fill="#3d8fd6"/><rect x="3" y="7" width="4" height="1" fill="#4fd67a"/><rect x="7" y="7" width="5" height="1" fill="#3d8fd6"/><rect x="12" y="7" width="1" height="1" fill="#4fd67a"/><rect x="13" y="7" width="2" height="1" fill="#3d8fd6"/><rect x="15" y="7" width="1" height="1" fill="#17476e"/><rect x="0" y="8" width="1" height="1" fill="#17476e"/><rect x="1" y="8" width="4" height="1" fill="#3d8fd6"/><rect x="5" y="8" width="1" height="1" fill="#4fd67a"/><rect x="6" y="8" width="3" height="1" fill="#3d8fd6"/><rect x="9" y="8" width="4" height="1" fill="#4fd67a"/><rect x="13" y="8" width="2" height="1" fill="#3d8fd6"/><rect x="15" y="8" width="1" height="1" fill="#17476e"/><rect x="0" y="9" width="1" height="1" fill="#17476e"/><rect x="1" y="9" width="8" height="1" fill="#3d8fd6"/><rect x="9" y="9" width="4" height="1" fill="#4fd67a"/><rect x="13" y="9" width="2" height="1" fill="#3d8fd6"/><rect x="15" y="9" width="1" height="1" fill="#17476e"/><rect x="0" y="10" width="2" height="1" fill="#17476e"/><rect x="2" y="10" width="5" height="1" fill="#3d8fd6"/><rect x="7" y="10" width="1" height="1" fill="#4fd67a"/><rect x="8" y="10" width="1" height="1" fill="#3d8fd6"/><rect x="9" y="10" width="4" height="1" fill="#4fd67a"/><rect x="13" y="10" width="1" height="1" fill="#3d8fd6"/><rect x="14" y="10" width="2" height="1" fill="#17476e"/><rect x="1" y="11" width="1" height="1" fill="#17476e"/><rect x="2" y="11" width="2" height="1" fill="#3d8fd6"/><rect x="4" y="11" width="4" height="1" fill="#4fd67a"/><rect x="8" y="11" width="1" height="1" fill="#3d8fd6"/><rect x="9" y="11" width="4" height="1" fill="#4fd67a"/><rect x="13" y="11" width="1" height="1" fill="#3d8fd6"/><rect x="14" y="11" width="1" height="1" fill="#17476e"/><rect x="2" y="12" width="1" height="1" fill="#17476e"/><rect x="3" y="12" width="2" height="1" fill="#3d8fd6"/><rect x="5" y="12" width="3" height="1" fill="#4fd67a"/><rect x="8" y="12" width="1" height="1" fill="#3d8fd6"/><rect x="9" y="12" width="1" height="1" fill="#4fd67a"/><rect x="10" y="12" width="3" height="1" fill="#3d8fd6"/><rect x="13" y="12" width="1" height="1" fill="#17476e"/><rect x="2" y="13" width="2" height="1" fill="#17476e"/><rect x="4" y="13" width="1" height="1" fill="#3d8fd6"/><rect x="5" y="13" width="3" height="1" fill="#4fd67a"/><rect x="8" y="13" width="4" height="1" fill="#3d8fd6"/><rect x="12" y="13" width="2" height="1" fill="#17476e"/><rect x="4" y="14" width="2" height="1" fill="#17476e"/><rect x="6" y="14" width="4" height="1" fill="#3d8fd6"/><rect x="10" y="14" width="2" height="1" fill="#17476e"/><rect x="5" y="15" width="6" height="1" fill="#17476e"/></svg>